<svg width="1366" height="410" viewBox="0 0 1366 410" fill="none" xmlns="http://www.w3.org/2000/svg">
<path fill-rule="evenodd" clip-rule="evenodd" d="M1366 328H1309.08C1252.17 328 1138.33 328 1024.5 314.333C910.667 300.667 796.833 273.333 683 259.667C569.167 246 455.333 246 341.5 205C227.667 164 113.833 82 56.9167 41L1.52588e-05 0V410H56.9167C113.833 410 227.667 410 341.5 410C455.333 410 569.167 410 683 410C796.833 410 910.667 410 1024.5 410C1138.33 410 1252.17 410 1309.08 410H1366V328Z" fill="#131212"/>
</svg>
