<svg width="615" height="170" viewBox="0 0 615 170" fill="none" xmlns="http://www.w3.org/2000/svg">
<path fill-rule="evenodd" clip-rule="evenodd" d="M0 0L25.625 3.54167C51.25 7.08333 102.5 14.1667 153.75 31.875C205 49.5833 256.25 77.9167 307.5 81.4583C358.75 85 410 63.75 461.25 49.5833C512.5 35.4167 563.75 28.3333 589.375 24.7917L615 21.25V170H589.375C563.75 170 512.5 170 461.25 170C410 170 358.75 170 307.5 170C256.25 170 205 170 153.75 170C102.5 170 51.25 170 25.625 170H0V0Z" fill="#962424"/>
</svg>
